#!OML:ASF X:\für Bonn\!DataBase\2005_08_10_Bjorn_Final\c3d\bjorn.ASF
:FULLY-SPECIFIED
:DEGREES
423
root 0.461921 2.05096 19.0857 -256.717 -10.7031 -537.199
lowerback 48.0307 4.40706 12.9802
upperback 29.9447 -5.86303 4.66066
thorax 15.136 -9.2847 -1.48745
lowerneck 10.1426 14.7024 7.82473
upperneck 12.1902 20.0856 -9.06514
head 3.7941 9.82968 -3.64882
rclavicle -6.36111e-014 1.33186e-014
rhumerus -76.4186 -4.27209 -92.4045
rradius 49.6568
rwrist -42.3751
rhand -23.5448 0.348308
rfingers 7.12502
rthumb 2.91702 -29.6115
lclavicle -6.36111e-014 1.33186e-014
lhumerus -81.0718 -31.3226 106.873
lradius 62.5988
lwrist 43.5656
lhand -33.9945 -343.93
lfingers 7.12502
lthumb -7.17423 45.9287
rfemur -69.6277 -28.3592 -2.09821
rtibia 121.036
rfoot 35.8308 16.2429
rtoes 4.1247
lfemur -77.1914 21.132 -12.5139
ltibia 129.08
lfoot 18.2292 -7.46735
ltoes 8.03638
424
root 0.458232 2.05964 19.0712 -256.363 -10.8461 -537.125
lowerback 48.1959 4.33712 12.9723
upperback 29.8314 -5.89778 4.70079
thorax 14.9631 -9.29764 -1.38852
lowerneck 10.2281 14.7681 7.83866
upperneck 12.0878 20.1954 -9.25439
head 3.77967 9.889 -3.70872
rclavicle -4.72114e-015 5.62561e-014
rhumerus -76.0337 -4.34589 -92.1527
rradius 48.6885
rwrist -42.2047
rhand -23.1679 0.867314
rfingers 7.12502
rthumb 3.28098 -29.0872
lclavicle -4.72114e-015 5.62561e-014
lhumerus -80.159 -30.8152 105.93
lradius 62.3594
lwrist 42.9524
lhand -33.1067 -344.273
lfingers 7.12502
lthumb -6.3172 45.6126
rfemur -70.0577 -28.6808 -2.13963
rtibia 121.167
rfoot 35.8143 16.4383
rtoes 3.93069
lfemur -77.5434 20.8894 -12.7196
ltibia 128.987
lfoot 18.0097 -7.81645
ltoes 7.4275
425
root 0.453297 2.0694 19.0571 -256.002 -10.9756 -537.089
lowerback 48.3471 4.30085 12.9785
upperback 29.7403 -5.89605 4.74695
thorax 14.8244 -9.29186 -1.30477
lowerneck 10.2509 14.842 7.79679
upperneck 12.0218 20.3033 -9.33472
head 3.76983 9.94552 -3.72421
rclavicle 6.40584e-014 -3.77691e-014
rhumerus -75.5997 -4.49903 -91.8632
rradius 47.6653
rwrist -41.9638
rhand -22.691 1.40605
rfingers 7.12502
rthumb 3.74153 -28.5409
lclavicle 6.40584e-014 -3.77691e-014
lhumerus -79.274 -30.3647 104.962
lradius 62.2626
lwrist 42.2732
lhand -32.3425 -344.475
lfingers 7.12502
lthumb -5.57944 45.432
rfemur -70.5089 -28.9354 -2.16687
rtibia 121.302
rfoot 35.7786 16.6169
rtoes 3.74002
lfemur -77.855 20.7319 -12.9044
ltibia 128.921
lfoot 17.5745 -8.3324
ltoes 6.25268
426
root 0.447253 2.07821 19.0414 -255.621 -11.1046 -537.045
lowerback 48.5044 4.26267 12.9479
upperback 29.635 -5.90319 4.77961
thorax 14.6617 -9.29281 -1.21283
lowerneck 10.2749 14.9368 7.76196
upperneck 11.9899 20.438 -9.40669
head 3.77284 10.0141 -3.7356
rclavicle 2.69353e-014 -3.43897e-014
rhumerus -75.1767 -4.59758 -91.5452
rradius 46.6483
rwrist -41.6916
rhand -22.1388 1.84886
rfingers 7.12502
rthumb 4.2747 -28.088
lclavicle 2.69353e-014 -3.43897e-014
lhumerus -78.4844 -29.888 104.097
lradius 62.2512
lwrist 41.2755
lhand -31.9442 -344.603
lfingers 7.12502
lthumb -5.19482 45.3128
rfemur -70.9806 -29.2297 -2.19281
rtibia 121.436
rfoot 35.776 16.7739
rtoes 3.65999
lfemur -78.2191 20.5848 -13.1008
ltibia 128.892
lfoot 17.059 -8.89298
ltoes 4.59152
427
root 0.44065 2.08736 19.0258 -255.254 -11.2212 -536.989
lowerback 48.679 4.22628 12.9469
upperback 29.5464 -5.90477 4.78441
thorax 14.518 -9.28519 -1.16958
lowerneck 10.301 15.0115 7.87427
upperneck 11.9496 20.5628 -9.50444
head 3.78949 10.0848 -3.77318
rclavicle -9.0447e-015 -8.09054e-014
rhumerus -74.7268 -4.69947 -91.3381
rradius 45.6235
rwrist -41.4294
rhand -21.556 2.25158
rfingers 7.12502
rthumb 4.83748 -27.6732
lclavicle -9.0447e-015 -8.09054e-014
lhumerus -77.818 -29.5177 103.32
lradius 62.3386
lwrist 39.7303
lhand -31.9143 -344.808
lfingers 7.12502
lthumb -5.16602 45.1092
rfemur -71.4291 -29.5157 -2.19977
rtibia 121.572
rfoot 35.7558 16.9437
rtoes 3.57132
lfemur -78.5379 20.4709 -13.2572
ltibia 128.878
lfoot 16.5719 -9.41563
ltoes 2.99148
428
root 0.432899 2.09661 19.0079 -254.876 -11.3433 -536.957
lowerback 48.8523 4.21257 12.9217
upperback 29.459 -5.88292 4.78133
thorax 14.3731 -9.26613 -1.12933
lowerneck 10.3569 15.0658 8.01388
upperneck 11.8696 20.6654 -9.64074
head 3.79413 10.1468 -3.83007
rclavicle -5.76476e-015 -4.41302e-014
rhumerus -74.2624 -4.85026 -91.0664
rradius 44.5748
rwrist -41.0373
rhand -20.8629 2.56298
rfingers 7.12502
rthumb 5.50676 -27.3455
lclavicle -5.76476e-015 -4.41302e-014
lhumerus -77.2371 -29.2024 102.666
lradius 62.4647
lwrist 37.3612
lhand -32.0479 -344.908
lfingers 7.12502
lthumb -5.29501 45.0062
rfemur -71.9181 -29.8109 -2.22192
rtibia 121.729
rfoot 35.7405 17.161
rtoes 3.34826
lfemur -78.8048 20.3987 -13.4196
ltibia 128.873
lfoot 16.1402 -9.79686
ltoes 1.80922
429
root 0.424587 2.10492 18.9883 -254.503 -11.428 -536.913
lowerback 49.0175 4.18171 12.9622
upperback 29.3836 -5.85896 4.74968
thorax 14.247 -9.23009 -1.15446
lowerneck 10.4359 15.1116 8.14559
upperneck 11.7475 20.7503 -9.71475
head 3.77394 10.2034 -3.87248
rclavicle 1.22253e-014 3.51849e-014
rhumerus -73.7838 -4.9975 -90.8879
rradius 43.5513
rwrist -40.6691
rhand -20.2216 2.7692
rfingers 7.12502
rthumb 6.1259 -27.1222
lclavicle 1.22253e-014 3.51849e-014
lhumerus -76.7441 -29.0323 102.087
lradius 62.7292
lwrist 34.4561
lhand -32.2379 -344.792
lfingers 7.12502
lthumb -5.47846 45.1168
rfemur -72.4062 -30.1007 -2.18925
rtibia 121.891
rfoot 35.6894 17.3634
rtoes 3.20945
lfemur -79.0923 20.398 -13.5346
ltibia 128.913
lfoot 15.8419 -10.0674
ltoes 1.03246
